HIERARCHY
ROOT root
{
	OFFSET	0	13.1	24.9
	CHANNELS 6  Xposition Yposition Zposition Xrotation Yrotation Zrotation
	JOINT spine_1
	{
		OFFSET	0	9.99999	0
		CHANNELS 3  Xrotation Yrotation Zrotation
		JOINT spine_2
		{
			OFFSET	0	112	-10
			CHANNELS 3  Xrotation Yrotation Zrotation
			JOINT spine_3
			{
				OFFSET	0	206.5	19.3
				CHANNELS 3  Xrotation Yrotation Zrotation
				JOINT spine_4
				{
					OFFSET	0	110.4	14.6
					CHANNELS 3  Xrotation Yrotation Zrotation
					JOINT neck_1
					{
						OFFSET	0	71.8	-50.3
						CHANNELS 3  Xrotation Yrotation Zrotation
						JOINT neck_2
						{
							OFFSET	0	86.2	-25.8
							CHANNELS 3  Xrotation Yrotation Zrotation
							JOINT head_ee
							{
								OFFSET	0	179.8	-8.7
								CHANNELS 3  Xrotation Yrotation Zrotation
								End Site
								{
									OFFSET	1	0	0
								}
							}
						}
					}
					JOINT left_clavicle
					{
						OFFSET	-43.2	22.4	-70.8
						CHANNELS 3  Xrotation Yrotation Zrotation
						JOINT left_shoulder
						{
							OFFSET	-93.9	-5.79999	48.7
							CHANNELS 3  Xrotation Yrotation Zrotation
							JOINT left_elbow
							{
								OFFSET	-291.4	-30.8	15.2
								CHANNELS 3  Xrotation Yrotation Zrotation
								JOINT left_lowarm_twist
								{
									OFFSET	-110.7	-3.89999	13.6
									CHANNELS 3  Xrotation Yrotation Zrotation
									JOINT left_hand
									{
										OFFSET	-110.7	-3.89999	13.6
										CHANNELS 3  Xrotation Yrotation Zrotation
										JOINT left_ee
										{
											OFFSET	-80.8	-5.10001	12.1
											CHANNELS 3  Xrotation Yrotation Zrotation
											End Site
											{
												OFFSET	1	0	0
											}
										}
									}
								}
							}
						}
					}
					JOINT right_clavicle
					{
						OFFSET	43.2	22.4	-70.8
						CHANNELS 3  Xrotation Yrotation Zrotation
						JOINT right_shoulder
						{
							OFFSET	93.9	-5.79999	48.7
							CHANNELS 3  Xrotation Yrotation Zrotation
							JOINT right_elbow
							{
								OFFSET	291.4	-30.8	15.2
								CHANNELS 3  Xrotation Yrotation Zrotation
								JOINT right_lowarm_twist
								{
									OFFSET	110.7	-3.89999	13.6
									CHANNELS 3  Xrotation Yrotation Zrotation
									JOINT right_hand
									{
										OFFSET	110.7	-3.89999	13.6
										CHANNELS 3  Xrotation Yrotation Zrotation
										JOINT right_ee
										{
											OFFSET	80.8	-5.10001	12.1
											CHANNELS 3  Xrotation Yrotation Zrotation
											End Site
											{
												OFFSET	1	0	0
											}
										}
									}
								}
							}
						}
					}
				}
			}
		}
	}
	JOINT left_hip
	{
		OFFSET	-82.8	-127.5	0.300001
		CHANNELS 3  Xrotation Yrotation Zrotation
		JOINT left_knee
		{
			OFFSET	-28.2	-396.7	2.2
			CHANNELS 3  Xrotation Yrotation Zrotation
			JOINT left_ankle
			{
				OFFSET	-11.7	-411.3	35.4
				CHANNELS 3  Xrotation Yrotation Zrotation
				JOINT left_toes
				{
					OFFSET	0	-60	-88.6
					CHANNELS 3  Xrotation Yrotation Zrotation
					JOINT left_foot_ee
					{
						OFFSET	-22.5	-16.5	-42.2
						CHANNELS 3  Xrotation Yrotation Zrotation
						End Site
						{
							OFFSET	1	0	0
						}
					}
				}
			}
		}
	}
	JOINT right_hip
	{
		OFFSET	82.8	-127.5	0.300001
		CHANNELS 3  Xrotation Yrotation Zrotation
		JOINT right_knee
		{
			OFFSET	28.2	-396.7	2.2
			CHANNELS 3  Xrotation Yrotation Zrotation
			JOINT right_ankle
			{
				OFFSET	11.7	-411.3	35.4
				CHANNELS 3  Xrotation Yrotation Zrotation
				JOINT right_toes
				{
					OFFSET	0	-60	-88.6
					CHANNELS 3  Xrotation Yrotation Zrotation
					JOINT right_foot_ee
					{
						OFFSET	22.5	-16.5	-42.2
						CHANNELS 3  Xrotation Yrotation Zrotation
						End Site
						{
							OFFSET	1	0	0
						}
					}
				}
			}
		}
	}
}
MOTION
Frames: 9
Frame Time: 0.02
1109.60404628 722.121 -1827.09911839 -16.8253323625 28.1460155346 10.4854711819 4.91492 0.0976269 -0.611462 4.91512 0.136337 -0.604011 4.91353 0.211169 -0.582087 4.91307 0.116591 -0.608131 -10.7812 14.7784 2.80507 -11.0598 26.0896 6.69551 -0.0 0.0 -0.0 4.4281 9.77962 8.83814 -42.2662 -27.4235 63.327 0.672219 -18.4177 0.108983 23.8817 0.214607 -3.02112 0.903393 -3.21415 4.71962 -0.0 0.0 -0.0 8.76019 6.35832 -17.1959 -22.1075 20.0781 -56.1631 1.38323 34.4174 -0.42843 16.9966 -0.282589 2.14482 -0.167507 -10.8116 -3.40059 0.0 0.0 0.0 36.937 0.355051 -9.0101 -55.1729 -1.7019 7.97258 31.6958 -4.03623 -4.1288 -11.1927 0.0 0.0 -0.0 0.0 -0.0 22.2217 13.0374 -8.2322 -14.1679 -0.319515 -2.14524 12.6119 -12.9437 1.78329 5.07859 -0.0 -0.0 0.0 0.0 0.0 
1109.49460706 720.935 -1844.78727859 -17.9313543093 26.2384530749 10.2148091873 5.49069 -0.00556188 -0.597962 5.49089 0.0324986 -0.597105 5.49036 0.101352 -0.589337 5.48988 0.0070072 -0.597947 -11.526 15.7827 3.31982 -11.9068 27.7739 7.67291 -0.0 0.0 -0.0 4.0716 10.4405 8.23063 -43.4863 -28.0107 63.9839 0.6537 -17.9433 0.103205 24.0267 0.212045 -3.03946 1.06339 -1.64855 6.44676 -0.0 0.0 -0.0 8.89436 6.0222 -17.4807 -20.7231 21.1356 -55.8985 1.51021 36.7982 -0.502379 17.0419 -0.282486 2.15061 0.00161994 -10.1196 -4.20139 0.0 0.0 0.0 38.902 1.82987 -8.9295 -52.4583 -1.44294 7.6441 30.6781 -1.21038 -3.99206 -11.0223 0.0 0.0 -0.0 0.0 -0.0 21.2583 15.1146 -8.08097 -11.644 -0.301622 -1.75844 16.3768 -16.3505 2.29963 5.13222 -0.0 -0.0 0.0 0.0 0.0 
1108.83946465 720.935 -1844.32096429 -17.9468166598 26.3351460444 10.2497235682 5.49069 -0.00556188 -0.597962 5.49089 0.0324986 -0.597105 5.49036 0.101352 -0.589337 5.48988 0.0070072 -0.597947 -11.526 15.7827 3.31982 -11.9068 27.7739 7.67291 -0.0 0.0 -0.0 4.0716 10.4405 8.23063 -43.4863 -28.0107 63.9839 0.6537 -17.9433 0.103205 24.0267 0.212045 -3.03946 1.06339 -1.64855 6.44676 -0.0 0.0 -0.0 8.89436 6.0222 -17.4807 -20.7231 21.1356 -55.8985 1.51021 36.7982 -0.502379 17.0419 -0.282486 2.15061 0.00161994 -10.1196 -4.20139 0.0 0.0 0.0 38.902 1.82987 -8.9295 -52.4583 -1.44294 7.6441 30.6781 -1.21038 -3.99206 -11.0223 0.0 0.0 -0.0 0.0 -0.0 21.2583 15.1146 -8.08097 -11.644 -0.301622 -1.75844 16.3768 -16.3505 2.29963 5.13222 -0.0 -0.0 0.0 0.0 0.0 
1087.66457783 720.609 -1851.39259972 -17.824529153 26.2969650345 10.1922639969 5.65551 -0.0804381 -0.362567 5.65558 -0.0572042 -0.36695 5.65587 -0.0154473 -0.371061 5.65568 -0.0738551 -0.363965 -12.4259 16.3325 3.31585 -12.9361 28.9589 8.0933 -0.0 0.0 -0.0 3.33614 10.8889 6.97764 -42.4539 -27.1732 65.9664 0.630387 -17.3424 0.0961396 25.6857 0.179428 -3.24887 1.11203 0.386289 7.60488 -0.0 0.0 -0.0 8.97292 6.06477 -17.6469 -19.9377 21.9655 -55.3316 1.74252 40.797 -0.648029 16.9707 -0.282645 2.14153 0.105337 -9.30406 -4.53919 0.0 0.0 0.0 41.875 -0.260712 -11.2122 -51.0317 -1.3132 7.46672 29.4415 -0.477356 -3.85404 -11.7197 0.0 0.0 -0.0 0.0 -0.0 19.4343 17.2368 -7.47462 -10.3599 -0.285984 -1.56204 17.4582 -15.7236 2.43676 4.49687 -0.0 -0.0 0.0 0.0 0.0 
1063.98709335 716.6 -1860.82922983 -17.5804498138 25.802542215 10.8616460601 5.81863 0.0394727 -0.548822 5.8188 0.0743152 -0.545199 5.81792 0.133836 -0.533716 5.81753 0.0478671 -0.548154 -12.8925 16.7217 3.22877 -13.4917 29.8242 8.28121 -0.0 0.0 -0.0 2.67639 11.0796 5.8589 -42.2687 -26.7538 67.7709 0.661979 -18.1557 0.10577 27.1618 0.145321 -3.43433 1.25967 1.72498 9.13727 -0.0 0.0 -0.0 9.2609 7.48869 -18.2559 -19.0653 21.5162 -55.9023 1.89694 43.2147 -0.751391 16.9416 -0.282707 2.13781 0.0731942 -8.99598 -4.20716 0.0 0.0 0.0 45.0471 -1.99728 -11.6514 -44.5176 -0.778899 6.6188 25.9749 2.44062 -3.45173 -12.2807 0.0 0.0 -0.0 0.0 -0.0 17.3621 19.2809 -8.33224 -8.20967 -0.249953 -1.23407 21.4757 -16.3041 2.95072 4.28615 -0.0 -0.0 0.0 0.0 0.0 
1045.24575673 713.122 -1865.90735872 -18.3234032161 26.526186382 11.5986841587 6.07468 0.00695054 -0.669862 6.07493 0.0495605 -0.668062 6.07407 0.119801 -0.659099 6.07347 0.0142077 -0.669747 -13.1248 16.9752 3.16787 -13.7782 30.3792 8.38459 -0.0 0.0 -0.0 2.19323 11.2443 5.04676 -41.9021 -26.4092 68.7454 0.67973 -18.6094 0.111369 28.2814 0.116268 -3.5744 1.33114 2.768 10.0323 -0.0 0.0 -0.0 9.5071 8.51163 -18.7781 -18.2774 21.1953 -55.7754 2.01813 44.987 -0.835742 16.91 -0.282772 2.13377 0.104731 -8.60615 -4.2532 0.0 0.0 0.0 46.6379 -3.23929 -12.214 -40.2165 -0.480596 6.02855 23.3934 4.42802 -3.14505 -12.72 0.0 0.0 -0.0 0.0 -0.0 16.0989 20.7039 -7.8582 -6.92961 -0.222665 -1.03953 24.7245 -16.7242 3.34981 4.23805 -0.0 -0.0 0.0 0.0 0.0 
1019.04708945 703.47 -1875.25416638 -18.9674495115 27.4571595345 12.655904737 6.23312 0.0614141 -0.585226 6.2333 0.0985284 -0.580132 6.2321 0.157652 -0.566928 6.23166 0.0661397 -0.584711 -13.532 17.2753 3.86791 -14.226 30.5844 9.26395 -0.0 0.0 -0.0 1.56811 12.302 4.06978 -41.8505 -26.1637 69.5129 0.692971 -18.9462 0.115631 29.0545 0.094608 -3.67078 1.31406 3.4486 10.1849 -0.0 0.0 -0.0 9.70829 9.55559 -19.2029 -17.2093 21.0767 -55.5352 2.13137 46.5494 -0.916884 17.2632 -0.281919 2.17887 0.153996 -7.85887 -4.27011 0.0 0.0 0.0 46.9868 -5.72652 -13.0293 -37.0534 -0.290029 5.58135 21.1442 4.85979 -2.87357 -13.0335 0.0 0.0 -0.0 0.0 -0.0 14.0996 21.5378 -7.91654 -5.52843 -0.18782 -0.827334 27.4267 -17.3688 3.67346 4.26858 -0.0 -0.0 0.0 0.0 0.0 
985.017286777 701.49 -1882.35733088 -19.5129247354 29.4025154843 12.9867552152 6.3642 -0.0800008 -0.495807 6.36433 -0.0482896 -0.499892 6.36458 0.00219476 -0.502214 6.36424 -0.0771472 -0.496259 -12.743 17.0022 1.07049 -13.4477 31.6776 6.32863 -0.0 0.0 -0.0 0.678014 14.3044 2.7824 -41.7612 -27.2161 69.4912 0.728281 -19.8379 0.127355 29.4772 0.0822167 -3.72336 1.31234 3.791 10.3074 -0.0 0.0 -0.0 9.40909 10.4188 -18.5379 -16.8707 21.0845 -55.8175 2.20747 47.5513 -0.972587 16.6259 -0.283256 2.09748 0.540438 -4.80842 -5.57231 0.0 0.0 0.0 45.5678 -6.79016 -12.9499 -28.5822 0.0957527 4.34 14.5125 3.42812 -2.03386 -13.9225 0.0 0.0 -0.0 0.0 -0.0 11.4389 23.2383 -6.39405 -5.75243 -0.193739 -0.861201 30.7533 -15.8294 4.02614 3.94675 -0.0 -0.0 0.0 0.0 0.0 
961.384273618 698.924 -1894.67175775 -20.0310253155 30.007723702 13.1793897384 6.52469 -0.0631478 -0.29351 6.52474 -0.0443431 -0.296933 6.52491 -0.0151155 -0.299845 6.52479 -0.0622806 -0.293695 -12.3524 16.6486 -0.353893 -13.0197 31.8525 4.74562 -0.0 0.0 -0.0 0.280349 15.5379 2.27162 -40.5603 -27.9357 69.3215 0.684016 -18.7186 0.11274 29.7256 0.0747555 -3.7542 1.1668 4.41197 9.57507 -0.0 0.0 -0.0 9.59563 10.966 -18.9327 -16.5013 20.9961 -55.885 2.26536 48.2887 -1.01556 15.7514 -0.283618 1.98579 0.751041 -2.16758 -5.90554 0.0 0.0 0.0 44.5718 -9.48407 -12.3372 -18.8248 0.307772 2.85945 7.0868 2.87526 -1.02123 -15.6124 0.0 0.0 -0.0 0.0 -0.0 9.40303 23.7575 -5.46644 -4.82174 -0.168278 -0.720642 33.4328 -15.569 4.30636 3.11656 -0.0 -0.0 0.0 0.0 0.0 
